<svg xmlns="http://www.w3.org/2000/svg" viewBox="84 370 176 238" fill="none" role="img" aria-label="kapi.run mark">
  <path fill="#54763B" d="M189.295532,550.416138 C160.266281,552.785522 132.399368,550.197937 105.121567,537.934204 C108.742744,550.385803 111.909660,562.220520 116.464722,573.592468 C118.402634,578.430603 122.918907,581.114563 127.400780,583.441284 C136.558777,588.195374 146.445404,590.416992 156.631668,591.321411 C173.825302,592.848022 190.931030,592.722717 207.556641,587.249634 C215.667328,584.579590 223.621735,581.571716 228.372116,573.621460 C229.527832,571.687256 231.570129,571.082520 233.563904,572.461121 C235.579697,573.854980 235.417023,575.788574 234.290131,577.761658 C230.744019,583.970459 225.189331,587.828979 218.918228,590.791199 C208.858810,595.542725 198.125458,598.084412 187.144562,598.902771 C168.292267,600.307739 149.516754,599.993958 131.440796,593.187500 C119.148392,588.558899 109.837601,581.563354 106.408768,567.754272 C102.924271,553.720886 98.155090,539.998962 93.738998,526.207703 C91.591637,519.501526 93.390137,513.990906 98.244698,509.432587 C103.686325,504.323151 110.376953,501.321259 117.462166,499.149994 C119.501953,498.524872 121.149467,498.769043 121.913116,500.963348 C122.764839,503.410706 121.997841,505.268402 119.446480,506.070892 C114.810593,507.529022 110.383118,509.407379 106.392715,512.215454 C98.591064,517.705444 98.380127,523.108948 105.864952,528.952026 C112.451050,534.093445 120.276550,536.648193 128.206406,538.545654 C159.574554,546.051453 190.858826,545.937378 221.925995,536.714783 C226.898544,535.238647 231.598969,533.103088 235.965836,530.290649 C245.979919,523.841248 245.944534,517.091431 235.726028,511.165527 C232.432404,509.255463 228.866241,507.775146 225.324783,506.345947 C222.707748,505.289795 220.724380,504.011414 221.919937,500.859222 C223.165497,497.575134 225.671341,498.877838 227.807526,499.640930 C234.436874,502.009094 240.785278,504.966766 245.876877,509.973633 C250.349884,514.372131 252.183838,519.563354 250.267761,525.885437 C246.357773,538.786194 242.616531,551.738098 238.796997,564.666382 C238.561417,565.463684 238.323975,566.275085 237.959106,567.016785 C237.008560,568.949341 235.632080,570.512024 233.277466,569.634949 C231.029907,568.797729 230.576416,566.790710 231.188324,564.651917 C232.836578,558.891174 234.609268,553.166077 236.269669,547.408691 C237.093521,544.552063 237.779236,541.655701 238.799210,537.731934 C222.783218,545.445923 206.505341,548.904541 189.295532,550.416138 z"/>
  <path fill="#54763B" d="M182.460709,482.674744 C163.683868,484.387756 145.933456,481.826813 128.232147,474.837830 C128.968002,484.786896 131.301117,493.780701 132.875839,502.883728 C134.463287,512.060364 136.381332,521.179932 137.968506,530.356628 C138.323334,532.408264 139.584747,535.449463 136.136566,536.077515 C132.981155,536.652283 131.352341,534.593079 130.778320,531.509277 C126.548256,508.784180 122.254684,486.070923 118.007454,463.348969 C117.201477,459.037140 118.901886,455.523926 121.782143,452.469727 C124.948303,449.112335 128.922821,447.045227 133.208618,445.546814 C159.486969,436.359314 185.728836,436.422668 211.899567,445.983948 C215.201126,447.190155 218.296249,448.896729 220.889252,451.286346 C224.766556,454.859467 226.683197,458.916534 225.570038,464.608521 C221.230881,486.796204 217.273743,509.058563 213.160019,531.290466 C213.010040,532.101013 212.807968,532.930481 212.458557,533.670105 C211.373123,535.967773 209.253311,536.733459 207.041672,536.303833 C204.255035,535.762573 205.419540,533.391907 205.708893,531.789185 C208.779724,514.780334 211.931076,497.785889 215.101807,480.795227 C215.434265,479.013733 216.106949,477.284760 215.134674,474.941528 C204.756821,479.045776 194.086975,481.961700 182.460709,482.674744 M217.362335,458.457672 C214.630432,454.499420 210.384125,452.766693 206.118271,451.467804 C183.553070,444.597290 160.903625,444.714142 138.325485,451.413757 C135.181259,452.346710 132.112946,453.910706 129.365082,455.722046 C124.444466,458.965576 124.436768,462.413361 128.985809,466.082520 C132.291840,468.749084 136.214661,470.202698 140.212418,471.362488 C157.108551,476.264313 174.260391,476.906006 191.591537,474.235870 C199.038773,473.088501 206.271927,471.261810 212.854507,467.446045 C215.999832,465.622742 218.773972,463.489471 217.362335,458.457672 z"/>
  <path fill="#54763B" d="M179.610535,381.870209 C179.404083,380.384308 178.442825,379.357452 179.252441,378.171173 C184.204651,380.291443 187.014099,386.227448 185.874832,391.961365 C184.933136,396.700958 182.361038,400.605591 179.264664,404.075500 C173.508865,410.525726 171.495377,417.458344 175.383987,425.570557 C175.560562,425.938934 175.406616,426.465729 175.406616,427.003479 C168.278061,424.146698 165.281891,415.575684 168.531342,407.810425 C170.092514,404.079681 172.554092,400.936798 175.172943,397.921753 C179.114334,393.384155 180.902771,388.265839 179.610535,381.870209 z"/>
  <path fill="#54763B" d="M205.184082,464.791046 C206.465042,468.268738 203.675781,468.100525 202.063492,468.634888 C190.395020,472.502197 178.314667,473.420288 166.161530,472.779022 C157.895355,472.342834 149.570038,471.685272 141.654221,468.826935 C140.129410,468.276337 138.335510,468.180725 137.397324,466.514465 C137.378235,464.647827 138.803070,463.868774 140.154373,463.371368 C161.883804,455.372528 183.506912,454.579651 205.184082,464.791046 z"/>
</svg>
